#!OML:ASF I:\Actors\actors\Patient Classification 2\Patient 1\Session 1\actor1.ASF
:FULLY-SPECIFIED
:DEGREES

447
root -0.699995 18.1207 5.9433 2.6218 -12.2791 -1.44323
lowerback 1.76317 -1.31725 3.44458
upperback -3.58131 -1.55387 1.75056
thorax -4.73407 -0.865573 -0.0266756
lowerneck -12.0581 -2.43683 1.65926
upperneck 21.2554 -4.4096 2.58237
head 8.64527 -1.70225 0.105817
rclavicle -5.96354e-016 -1.19271e-014
rhumerus -43.5983 41.8557 -101.913
rradius 97.1732
rwrist -7.50445
rhand -0.405841 -27.4366
rfingers 7.12502
rthumb 25.2016 -55.7927
lclavicle -5.96354e-016 -1.19271e-014
lhumerus -5.71583 -6.07977 60.1751
lradius 123.17
lwrist 54.7354
lhand -31.417 -24.0529
lfingers 7.12502
lthumb -4.68585 5.87526
rfemur 11.8328 7.94933 14.9994
rtibia -15.2698
rfoot -6.16314 -11.4491
rtoes -0.0355934
lfemur 11.9733 1.51141 -13.3345
ltibia -3.55032
lfoot -13.3023 16.8521
ltoes -8.62107
448
root -0.705101 18.1234 5.93709 2.56584 -11.5931 -1.36468
lowerback 1.80998 -1.16999 3.44667
upperback -3.57127 -1.35681 1.69052
thorax -4.74623 -0.768721 -0.101005
lowerneck -12.0987 -2.61587 1.33919
upperneck 21.1402 -4.57859 2.56862
head 8.62043 -1.80901 0.136192
rclavicle 3.03147e-015 -1.98785e-015
rhumerus -44.0413 40.9 -101.838
rradius 95.9375
rwrist -7.28367
rhand 0.361167 -28.7496
rfingers 7.12502
rthumb 25.9363 -57.0002
lclavicle 3.03147e-015 -1.98785e-015
lhumerus -7.16655 -6.66682 60.1505
lradius 124.062
lwrist 52.7153
lhand -31.2101 -25.1361
lfingers 7.12502
lthumb -4.48599 4.79642
rfemur 11.8976 7.73657 14.9848
rtibia -15.0344
rfoot -6.63709 -11.6705
rtoes 0.149493
lfemur 12.025 0.838143 -13.3911
ltibia -3.92978
lfoot -12.9988 16.9598
ltoes -8.94931
449
root -0.704638 18.1267 5.93179 2.53077 -10.8026 -1.28348
lowerback 1.86355 -1.05811 3.52797
upperback -3.58061 -1.20356 1.61047
thorax -4.78591 -0.697424 -0.237189
lowerneck -12.1699 -2.81045 0.997567
upperneck 21.0935 -4.77959 2.60154
head 8.62747 -1.92594 0.181193
rclavicle 1.42131e-014 -2.18663e-014
rhumerus -44.557 39.7929 -101.709
rradius 94.6577
rwrist -6.83698
rhand 0.63803 -30.0341
rfingers 7.12502
rthumb 26.2014 -58.2456
lclavicle 1.42131e-014 -2.18663e-014
lhumerus -8.86987 -7.50297 60.3459
lradius 124.807
lwrist 50.0916
lhand -31.1967 -26.9851
lfingers 7.12502
lthumb -4.47306 2.94762
rfemur 11.9188 7.32751 14.9421
rtibia -14.7287
rfoot -7.0945 -11.7976
rtoes 0.431871
lfemur 12.106 0.0696079 -13.4724
ltibia -4.45382
lfoot -12.5847 17.1123
ltoes -9.40242
450
root -0.703971 18.1289 5.92649 2.52287 -10.0423 -1.29361
lowerback 1.95044 -0.946848 3.68215
upperback -3.61358 -1.04472 1.55082
thorax -4.86967 -0.626533 -0.39256
lowerneck -12.1635 -2.99662 0.69308
upperneck 21.0011 -4.97658 2.64965
head 8.60522 -2.03836 0.226982
rclavicle 2.33572e-015 -5.96354e-015
rhumerus -45.1867 38.6091 -101.587
rradius 93.3979
rwrist -6.47289
rhand 0.617716 -31.6435
rfingers 7.12502
rthumb 26.1819 -59.8579
lclavicle 2.33572e-015 -5.96354e-015
lhumerus -10.9033 -8.41002 60.6292
lradius 125.586
lwrist 47.4888
lhand -31.2549 -28.8117
lfingers 7.12502
lthumb -4.52924 1.11991
rfemur 11.8935 6.94717 14.9968
rtibia -14.3776
rfoot -7.57166 -11.9081
rtoes 0.911357
lfemur 12.2152 -0.666105 -13.4559
ltibia -5.04341
lfoot -12.1134 17.2865
ltoes -9.80853
451
root -0.708163 18.1306 5.92028 2.54657 -9.39975 -1.34428
lowerback 1.87718 -0.821628 3.75693
upperback -3.57433 -0.879689 1.52891
thorax -4.7828 -0.546087 -0.469223
lowerneck -12.0544 -3.12959 0.434202
upperneck 20.7241 -5.09979 2.7032
head 8.50038 -2.11647 0.27822
rclavicle 1.09332e-014 5.1684e-015
rhumerus -45.7539 37.4791 -101.357
rradius 92.1574
rwrist -6.36511
rhand 0.830505 -33.5155
rfingers 7.12502
rthumb 26.3856 -61.6995
lclavicle 1.09332e-014 5.1684e-015
lhumerus -13.1041 -9.23684 60.9879
lradius 126.357
lwrist 44.9519
lhand -31.2486 -30.6264
lfingers 7.12502
lthumb -4.52316 -0.694708
rfemur 11.8174 6.79339 15.1164
rtibia -14.0295
rfoot -8.15657 -12.0856
rtoes 1.582
lfemur 12.307 -1.28573 -13.3802
ltibia -5.6055
lfoot -11.6968 17.4475
ltoes -10.2187
